<svg width="375" height="300" viewBox="0 0 375 300" fill="none" xmlns="http://www.w3.org/2000/svg">
<g opacity="0.1">
<path d="M121.202 190.607L80.6649 149.988L212.272 18.1271H293.323M293.335 139.815H212.284L181.912 170.237L222.449 210.856" fill="black"/>
<path d="M181.912 251.451L212.272 281.873H293.323L222.437 210.844" fill="black"/>
<path d="M141.471 210.868L181.936 170.31L222.401 210.856L181.936 251.415L141.471 210.868Z" fill="black"/>
<path d="M181.948 251.415L222.413 210.868L228.064 216.531L187.599 257.077L181.948 251.415Z" fill="url(#paint0_linear_91092_373)"/>
<path d="M181.912 251.451L242.052 230.632L222.449 210.832" fill="url(#paint1_linear_91092_373)"/>
</g>
<path d="M73.632 166.808H95.968V173.848H73.632V166.808ZM74.336 191H66.016V146.2H98.72V153.176H74.336V191ZM105.998 191V143.512H113.998V191H105.998ZM138.962 191.448C136.061 191.448 133.501 190.915 131.282 189.848C129.063 188.739 127.335 187.075 126.098 184.856C124.861 182.595 124.242 179.757 124.242 176.344V156.824H132.242V175.256C132.242 178.328 132.925 180.632 134.29 182.168C135.698 183.661 137.682 184.408 140.242 184.408C142.119 184.408 143.741 184.024 145.106 183.256C146.514 182.488 147.602 181.336 148.37 179.8C149.181 178.264 149.586 176.365 149.586 174.104V156.824H157.586V191H149.97V181.784L151.314 184.6C150.162 186.819 148.477 188.525 146.258 189.72C144.039 190.872 141.607 191.448 138.962 191.448ZM180.925 191.448C177.17 191.448 174.269 190.488 172.22 188.568C170.173 186.605 169.149 183.725 169.149 179.928V149.272H177.149V179.736C177.149 181.357 177.554 182.616 178.365 183.512C179.218 184.408 180.391 184.856 181.885 184.856C183.677 184.856 185.17 184.387 186.365 183.448L188.605 189.144C187.666 189.912 186.514 190.488 185.149 190.872C183.783 191.256 182.375 191.448 180.925 191.448ZM163.517 163.48V157.08H186.301V163.48H163.517ZM207.237 191.448C203.482 191.448 200.581 190.488 198.533 188.568C196.485 186.605 195.461 183.725 195.461 179.928V149.272H203.461V179.736C203.461 181.357 203.866 182.616 204.677 183.512C205.53 184.408 206.704 184.856 208.197 184.856C209.989 184.856 211.482 184.387 212.677 183.448L214.917 189.144C213.978 189.912 212.826 190.488 211.461 190.872C210.096 191.256 208.688 191.448 207.237 191.448ZM189.829 163.48V157.08H212.613V163.48H189.829ZM236.437 191.448C232.64 191.448 229.312 190.701 226.453 189.208C223.637 187.672 221.44 185.581 219.861 182.936C218.325 180.291 217.557 177.283 217.557 173.912C217.557 170.499 218.304 167.491 219.797 164.888C221.333 162.243 223.424 160.173 226.069 158.68C228.757 157.187 231.808 156.44 235.221 156.44C238.549 156.44 241.514 157.165 244.117 158.616C246.72 160.067 248.768 162.115 250.261 164.76C251.754 167.405 252.501 170.52 252.501 174.104C252.501 174.445 252.48 174.829 252.437 175.256C252.437 175.683 252.416 176.088 252.373 176.472H223.893V171.16H248.149L245.013 172.824C245.056 170.861 244.65 169.133 243.797 167.64C242.944 166.147 241.77 164.973 240.277 164.12C238.826 163.267 237.141 162.84 235.221 162.84C233.258 162.84 231.53 163.267 230.037 164.12C228.586 164.973 227.434 166.168 226.581 167.704C225.77 169.197 225.365 170.968 225.365 173.016V174.296C225.365 176.344 225.834 178.157 226.773 179.736C227.712 181.315 229.034 182.531 230.741 183.384C232.448 184.237 234.41 184.664 236.629 184.664C238.549 184.664 240.277 184.365 241.813 183.768C243.349 183.171 244.714 182.232 245.909 180.952L250.197 185.88C248.661 187.672 246.72 189.059 244.373 190.04C242.069 190.979 239.424 191.448 236.437 191.448ZM270.746 191.448C267.887 191.448 265.135 191.085 262.49 190.36C259.887 189.592 257.818 188.675 256.282 187.608L259.354 181.528C260.89 182.509 262.724 183.32 264.858 183.96C266.991 184.6 269.124 184.92 271.258 184.92C273.775 184.92 275.588 184.579 276.698 183.896C277.85 183.213 278.426 182.296 278.426 181.144C278.426 180.205 278.042 179.501 277.274 179.032C276.506 178.52 275.503 178.136 274.266 177.88C273.028 177.624 271.642 177.389 270.106 177.176C268.612 176.963 267.098 176.685 265.562 176.344C264.068 175.96 262.703 175.427 261.466 174.744C260.228 174.019 259.226 173.059 258.458 171.864C257.69 170.669 257.306 169.091 257.306 167.128C257.306 164.952 257.924 163.075 259.161 161.496C260.399 159.875 262.127 158.637 264.345 157.784C266.607 156.888 269.274 156.44 272.346 156.44C274.65 156.44 276.975 156.696 279.322 157.208C281.668 157.72 283.61 158.445 285.146 159.384L282.074 165.464C280.452 164.483 278.81 163.821 277.146 163.48C275.524 163.096 273.903 162.904 272.282 162.904C269.85 162.904 268.036 163.267 266.842 163.992C265.69 164.717 265.114 165.635 265.114 166.744C265.114 167.768 265.498 168.536 266.266 169.048C267.034 169.56 268.036 169.965 269.274 170.264C270.511 170.563 271.876 170.819 273.37 171.032C274.906 171.203 276.42 171.48 277.914 171.864C279.407 172.248 280.772 172.781 282.01 173.464C283.29 174.104 284.314 175.021 285.082 176.216C285.85 177.411 286.234 178.968 286.234 180.888C286.234 183.021 285.594 184.877 284.314 186.456C283.076 188.035 281.306 189.272 279.002 190.168C276.698 191.021 273.946 191.448 270.746 191.448ZM305.987 191.448C302.232 191.448 299.331 190.488 297.283 188.568C295.235 186.605 294.211 183.725 294.211 179.928V149.272H302.211V179.736C302.211 181.357 302.616 182.616 303.427 183.512C304.28 184.408 305.454 184.856 306.947 184.856C308.739 184.856 310.232 184.387 311.427 183.448L313.667 189.144C312.728 189.912 311.576 190.488 310.211 190.872C308.846 191.256 307.438 191.448 305.987 191.448ZM288.579 163.48V157.08H311.363V163.48H288.579Z" fill="black"/>
<defs>
<linearGradient id="paint0_linear_91092_373" x1="202.181" y1="231.142" x2="207.842" y2="236.791" gradientUnits="userSpaceOnUse">
<stop offset="0.2" stop-opacity="0.15"/>
<stop offset="0.85" stop-color="#616161" stop-opacity="0.01"/>
</linearGradient>
<linearGradient id="paint1_linear_91092_373" x1="181.915" y1="231.145" x2="242.05" y2="231.145" gradientUnits="userSpaceOnUse">
<stop offset="0.2" stop-opacity="0.55"/>
<stop offset="0.85" stop-color="#616161" stop-opacity="0.01"/>
</linearGradient>
</defs>
</svg>
